<svg width="17" height="17" viewBox="0 0 17 17" fill="none" xmlns="http://www.w3.org/2000/svg">
<g id="vuesax/linear/gallery-tick">
<g id="vuesax/linear/gallery-tick_2">
<g id="gallery-tick">
<path id="Vector" d="M6.76754 6.94792C7.50392 6.94792 8.10087 6.35096 8.10087 5.61458C8.10087 4.8782 7.50392 4.28125 6.76754 4.28125C6.03116 4.28125 5.4342 4.8782 5.4342 5.61458C5.4342 6.35096 6.03116 6.94792 6.76754 6.94792Z" stroke="#171719" stroke-linecap="round" stroke-linejoin="round"/>
<path id="Vector_2" d="M9.43416 1.61523H6.7675C3.43416 1.61523 2.10083 2.94857 2.10083 6.2819V10.2819C2.10083 13.6152 3.43416 14.9486 6.7675 14.9486H10.7675C14.1008 14.9486 15.4342 13.6152 15.4342 10.2819V6.94857" stroke="#171719" stroke-linecap="round" stroke-linejoin="round"/>
<path id="Vector_3" d="M11.4342 3.60714L12.4075 4.58047L15.0075 1.98047" stroke="#171719" stroke-linecap="round" stroke-linejoin="round"/>
<path id="Vector_4" d="M2.54755 12.9143L5.83421 10.7076C6.36088 10.3543 7.12088 10.3943 7.59421 10.801L7.81421 10.9943C8.33421 11.441 9.17421 11.441 9.69421 10.9943L12.4675 8.6143C12.9875 8.16763 13.8275 8.16763 14.3475 8.6143L15.4342 9.54763" stroke="#171719" stroke-linecap="round" stroke-linejoin="round"/>
</g>
</g>
</g>
</svg>
