<svg width="40" height="41" viewBox="0 0 40 41" fill="none" xmlns="http://www.w3.org/2000/svg">
<path d="M9.56627 26.6698C9.7496 25.8531 9.41627 24.6864 8.83294 24.1031L4.78294 20.0531C3.51627 18.7864 3.01627 17.4364 3.38294 16.2698C3.76627 15.1031 4.9496 14.3031 6.71627 14.0031L11.9163 13.1364C12.6663 13.0031 13.5829 12.3364 13.9329 11.6531L16.7996 5.90309C17.6329 4.25309 18.7663 3.33643 19.9996 3.33643C21.2329 3.33643 22.3663 4.25309 23.1996 5.90309L26.0663 11.6531C26.2829 12.0864 26.7329 12.5031 27.2163 12.7864L9.26627 30.7364C9.03294 30.9698 8.63294 30.7531 8.6996 30.4198L9.56627 26.6698Z" fill="#FFC727"/>
<path d="M31.167 24.1031C30.567 24.7031 30.2337 25.8531 30.4337 26.6698L31.5837 31.6864C32.067 33.7698 31.767 35.3364 30.7337 36.0864C30.317 36.3864 29.817 36.5364 29.2337 36.5364C28.3837 36.5364 27.3837 36.2198 26.2837 35.5698L21.4003 32.6698C20.6337 32.2198 19.367 32.2198 18.6003 32.6698L13.717 35.5698C11.867 36.6531 10.2837 36.8364 9.26699 36.0864C8.88366 35.8031 8.60033 35.4198 8.41699 34.9198L28.6837 14.6531C29.4503 13.8864 30.5337 13.5364 31.5837 13.7198L33.267 14.0031C35.0337 14.3031 36.217 15.1031 36.6003 16.2698C36.967 17.4364 36.467 18.7864 35.2003 20.0531L31.167 24.1031Z" fill="#FFC727"/>
</svg>
