<svg width="24" height="25" viewBox="0 0 24 25" fill="none" xmlns="http://www.w3.org/2000/svg">
<g id="vuesax/linear/shopping-cart">
<g id="vuesax/linear/shopping-cart_2">
<g id="shopping-cart">
<path id="Vector" d="M2 2.25146H3.74001C4.82001 2.25146 5.67 3.18146 5.58 4.25146L4.75 14.2115C4.61 15.8415 5.89999 17.2415 7.53999 17.2415H18.19C19.63 17.2415 20.89 16.0615 21 14.6315L21.54 7.13147C21.66 5.47147 20.4 4.12146 18.73 4.12146H5.82001" stroke="#171719" stroke-width="1.5" stroke-miterlimit="10" stroke-linecap="round" stroke-linejoin="round"/>
<path id="Vector_2" d="M16.25 22.2515C16.9404 22.2515 17.5 21.6918 17.5 21.0015C17.5 20.3111 16.9404 19.7515 16.25 19.7515C15.5596 19.7515 15 20.3111 15 21.0015C15 21.6918 15.5596 22.2515 16.25 22.2515Z" stroke="#171719" stroke-width="1.5" stroke-miterlimit="10" stroke-linecap="round" stroke-linejoin="round"/>
<path id="Vector_3" d="M8.25 22.2515C8.94036 22.2515 9.5 21.6918 9.5 21.0015C9.5 20.3111 8.94036 19.7515 8.25 19.7515C7.55964 19.7515 7 20.3111 7 21.0015C7 21.6918 7.55964 22.2515 8.25 22.2515Z" stroke="#171719" stroke-width="1.5" stroke-miterlimit="10" stroke-linecap="round" stroke-linejoin="round"/>
<path id="Vector_4" d="M9 8.25146H21" stroke="#171719" stroke-width="1.5" stroke-miterlimit="10" stroke-linecap="round" stroke-linejoin="round"/>
</g>
</g>
</g>
</svg>
