<svg width="53" height="40" viewBox="0 0 53 40" fill="none" xmlns="http://www.w3.org/2000/svg">
<g id="Frame" clip-path="url(#clip0_157_1237)">
<g id="Group">
<path id="Vector" d="M44.8148 17.5289C50.2289 19.2523 52.75 22.0234 52.75 26.25C52.75 29.0047 50.9773 31.775 47.75 34.0766V39.375C47.75 39.5625 47.6664 39.7398 47.5203 39.8586C47.4086 39.9516 47.2672 40 47.125 40C47.0828 40 47.0414 39.9961 47 39.9875C46.8852 39.9648 44.2422 39.4039 41.9062 36.9359C41.6875 36.9875 41.4664 37.0477 41.2437 37.1086C40.5289 37.3016 39.7891 37.5 39 37.5C35.4984 37.5 33.0375 36.7414 30.5039 34.8789C30.2266 34.6734 30.1664 34.2836 30.3711 34.0047C30.5766 33.7273 30.9648 33.6664 31.2453 33.8711C33.5422 35.5602 35.7898 36.25 39 36.25C39.6234 36.25 40.2812 36.0727 40.9188 35.9016C41.2875 35.8023 41.6516 35.7047 42.0078 35.6359C42.2234 35.5961 42.4461 35.6711 42.5922 35.8352C43.9961 37.4164 45.5875 38.1891 46.5 38.5289V33.75C46.5 33.5437 46.6016 33.3523 46.7711 33.2352C48.5359 32.0203 51.5 29.4984 51.5 26.25C51.5 22.5977 49.3211 20.2766 44.4359 18.7203C44.1078 18.6148 43.9266 18.2641 44.0297 17.9352C44.1352 17.6063 44.4852 17.4266 44.8148 17.5289ZM41.5 16.875C41.5 26.2234 33.5516 32.5063 21.7227 32.5063C20.1 32.5063 18.3109 32.2234 16.7297 31.9297C13.0797 35.9211 8.81406 37.8602 8.63125 37.9414C8.54844 37.9773 8.46094 37.9961 8.375 37.9961C8.25625 37.9961 8.13906 37.9625 8.03516 37.8961C7.85781 37.7797 7.75 37.5836 7.75 37.3711V29.0766C4.26406 26.6164 0.25 22.5516 0.25 16.8773C0.25 7.41406 9.40625 0 21.0961 0C32.7273 0 41.5 7.25469 41.5 16.875ZM21.7211 31.2563C32.8039 31.2563 40.25 25.4773 40.25 16.875C40.25 7.96719 32.0164 1.25 21.0961 1.25C10.1078 1.25 1.5 8.11406 1.5 16.8773C1.5 22.1562 5.43125 25.9664 8.72891 28.2352C8.89844 28.3523 9 28.5437 9 28.75V36.3523C10.4586 35.5609 13.4703 33.725 16.0328 30.8352C16.1789 30.6711 16.4016 30.5977 16.6172 30.6359C18.2227 30.9422 20.0836 31.2563 21.7211 31.2563ZM20.875 14.375C22.2539 14.375 23.375 15.4961 23.375 16.875C23.375 18.2539 22.2539 19.375 20.875 19.375C19.4961 19.375 18.375 18.2539 18.375 16.875C18.375 15.4961 19.4961 14.375 20.875 14.375ZM20.875 18.125C21.5641 18.125 22.125 17.5648 22.125 16.875C22.125 16.1852 21.5641 15.625 20.875 15.625C20.1859 15.625 19.625 16.1852 19.625 16.875C19.625 17.5648 20.1859 18.125 20.875 18.125ZM29.625 14.375C31.0039 14.375 32.125 15.4961 32.125 16.875C32.125 18.2539 31.0039 19.375 29.625 19.375C28.2461 19.375 27.125 18.2539 27.125 16.875C27.125 15.4961 28.2461 14.375 29.625 14.375ZM29.625 18.125C30.3141 18.125 30.875 17.5648 30.875 16.875C30.875 16.1852 30.3141 15.625 29.625 15.625C28.9359 15.625 28.375 16.1852 28.375 16.875C28.375 17.5648 28.9359 18.125 29.625 18.125ZM12.125 14.4937C13.5039 14.4937 14.625 15.6148 14.625 16.9937C14.625 18.3727 13.5039 19.4938 12.125 19.4938C10.7461 19.4938 9.625 18.3727 9.625 16.9937C9.625 15.6148 10.7461 14.4937 12.125 14.4937ZM12.125 18.2438C12.8141 18.2438 13.375 17.6836 13.375 16.9937C13.375 16.3039 12.8141 15.7437 12.125 15.7437C11.4359 15.7437 10.875 16.3039 10.875 16.9937C10.875 17.6836 11.4359 18.2438 12.125 18.2438Z" fill="#FB8A2E"/>
</g>
</g>
<defs>
<clipPath id="clip0_157_1237">
<rect width="52.5" height="40" fill="white" transform="matrix(1 0 0 -1 0.25 40)"/>
</clipPath>
</defs>
</svg>
