<svg width="45" height="34" viewBox="0 0 45 34" fill="none" xmlns="http://www.w3.org/2000/svg">
<g id="Frame 33947">
<g clip-path="url(#clip0_231_4838)">
<rect y="0.715088" width="44.653" height="33.2301" rx="2.07688" fill="#115CC9"/>
<g id="Rectangle 259" filter="url(#filter0_i_231_4838)">
<path d="M-5.08722e-06 33.9452L44.653 0.715066L67.9076 29.0892L21.0308 63.7625L-5.08722e-06 33.9452Z" fill="#00337C"/>
</g>
<g id="DE">
<path d="M10.9037 24.5997C10.3302 24.5997 9.86523 24.1348 9.86523 23.5613V13.1769C9.86523 12.6034 10.3302 12.1384 10.9037 12.1384H15.5451C16.9025 12.1384 18.0992 12.3995 19.1352 12.9217C20.1711 13.432 20.9809 14.15 21.5643 15.0757C22.1478 16.0014 22.4395 17.0992 22.4395 18.3691C22.4395 19.6271 22.1478 20.7249 21.5643 21.6624C20.9809 22.5881 20.1711 23.3121 19.1352 23.8342C18.0992 24.3446 16.9025 24.5997 15.5451 24.5997H10.9037ZM12.7587 22.2321H15.4022C16.2357 22.2321 16.9561 22.0778 17.5634 21.7692C18.1826 21.4488 18.6589 20.9978 18.9923 20.4163C19.3376 19.8348 19.5103 19.1524 19.5103 18.3691C19.5103 17.5739 19.3376 16.8915 18.9923 16.3219C18.6589 15.7403 18.1826 15.2953 17.5634 14.9867C16.9561 14.6663 16.2357 14.5061 15.4022 14.5061H12.7587V22.2321Z" fill="white"/>
<path d="M27.283 17.1586H32.2638C32.8373 17.1586 33.3022 17.6235 33.3022 18.197V18.3631C33.3022 18.9367 32.8373 19.4016 32.2638 19.4016H27.283V17.1586ZM27.4973 22.2855H33.264C33.8375 22.2855 34.3024 22.7504 34.3024 23.3239V23.5613C34.3024 24.1348 33.8375 24.5997 33.264 24.5997H25.6601C25.0866 24.5997 24.6217 24.1348 24.6217 23.5613V13.1769C24.6217 12.6034 25.0866 12.1384 25.6601 12.1384H33.0318C33.6053 12.1384 34.0702 12.6034 34.0702 13.1769V13.4142C34.0702 13.9877 33.6053 14.4527 33.0318 14.4527H27.4973V22.2855Z" fill="white"/>
</g>
</g>
</g>
<defs>
<filter id="filter0_i_231_4838" x="0" y="0.715088" width="67.9077" height="65.1242" filterUnits="userSpaceOnUse" color-interpolation-filters="sRGB">
<feFlood flood-opacity="0" result="BackgroundImageFix"/>
<feBlend mode="normal" in="SourceGraphic" in2="BackgroundImageFix" result="shape"/>
<feColorMatrix in="SourceAlpha" type="matrix" values="0 0 0 0 0 0 0 0 0 0 0 0 0 0 0 0 0 0 127 0" result="hardAlpha"/>
<feOffset dy="2.07688"/>
<feGaussianBlur stdDeviation="2.59611"/>
<feComposite in2="hardAlpha" operator="arithmetic" k2="-1" k3="1"/>
<feColorMatrix type="matrix" values="0 0 0 0 0 0 0 0 0 0.15252 0 0 0 0 0.370833 0 0 0 1 0"/>
<feBlend mode="normal" in2="shape" result="effect1_innerShadow_231_4838"/>
</filter>
<clipPath id="clip0_231_4838">
<rect y="0.715088" width="44.653" height="33.2301" rx="2.07688" fill="white"/>
</clipPath>
</defs>
</svg>
