<svg width="40" height="40" viewBox="0 0 40 40" fill="none" xmlns="http://www.w3.org/2000/svg">
<g id="Frame" clip-path="url(#clip0_157_1221)">
<g id="Group">
<path id="Vector" d="M0.0421875 20.8352C0.01875 20.7687 0 20.7 0 20.625C0 20.5797 0.0164062 20.5414 0.025 20.5C0.0210937 20.3328 0 20.1688 0 20C0 8.97266 8.97266 0 20 0C31.0273 0 40 8.97266 40 20C40 20.1688 39.9789 20.3328 39.975 20.5C39.9836 20.5414 40 20.5797 40 20.625C40 20.7 39.9813 20.7687 39.9578 20.8352C39.5148 31.4734 30.7461 40 20 40C9.25391 40 0.485156 31.4734 0.0421875 20.8352ZM31.1516 28.4273C31.8875 26.2422 32.3438 23.8188 32.4578 21.2516H26.2328C26.1961 23.1359 26.0797 25.0227 25.8828 26.8391C27.7328 27.2039 29.5023 27.7375 31.1516 28.4273ZM33.7062 21.25C33.5891 23.9953 33.0922 26.5875 32.2859 28.9234C33.3859 29.45 34.4086 30.0578 35.3578 30.7234C37.2641 28.0039 38.4539 24.7578 38.6859 21.25H33.7062ZM15.4859 27.8578C16.3547 34.5266 18.25 38.75 20 38.75C21.75 38.75 23.6453 34.5266 24.5125 27.8578C23.0414 27.6273 21.5297 27.5 20 27.5C18.4703 27.5 16.9586 27.6273 15.4859 27.8578ZM17.3852 38.3297C15.8922 36.2562 14.8438 32.4484 14.2703 28.0789C12.5148 28.4313 10.8398 28.9438 9.28281 29.6C11.0375 33.9914 13.9461 37.2273 17.3852 38.3297ZM15.3422 13.3859C15.1273 15.4109 15 17.6211 15 20H25C25 17.6211 24.8727 15.4109 24.6578 13.3859C23.1359 13.6211 21.5766 13.75 20 13.75C18.4234 13.75 16.8641 13.6211 15.3422 13.3859ZM24.9813 21.25H15.0172C15.0461 22.7922 15.1266 24.5813 15.3422 26.6141C16.8641 26.3789 18.4227 26.25 20 26.25C21.5773 26.25 23.1359 26.3789 24.6562 26.6141C24.8336 24.9516 24.9461 23.1562 24.9813 21.25ZM25.7312 28.0789C25.1562 32.4484 24.1078 36.2562 22.6164 38.3297C26.0547 37.2273 28.9641 33.9914 30.7188 29.6C29.1602 28.9438 27.4859 28.4313 25.7312 28.0789ZM26.25 20H32.5C32.5 16.9672 32.0062 14.1102 31.1516 11.5734C29.5023 12.2625 27.7328 12.7977 25.8828 13.1625C26.1227 15.3797 26.25 17.7047 26.25 20ZM25.7312 11.9211C27.4859 11.5703 29.1602 11.0562 30.7172 10.4C28.9625 6.00859 26.0539 2.77266 22.6148 1.67031C24.1086 3.74219 25.1562 7.55156 25.7312 11.9211ZM24.5141 12.1422C23.6453 5.47344 21.75 1.25 20 1.25C18.25 1.25 16.3547 5.47344 15.4859 12.1422C16.9586 12.3727 18.4703 12.5 20 12.5C21.5297 12.5 23.0414 12.3727 24.5141 12.1422ZM14.2688 11.9211C14.8438 7.55156 15.8922 3.74375 17.3836 1.67031C13.9453 2.77266 11.0359 6.00859 9.28125 10.4C10.8398 11.0562 12.5141 11.5688 14.2688 11.9211ZM14.1172 13.1625C12.2672 12.7961 10.4977 12.2625 8.84844 11.5727C7.99375 14.1102 7.5 16.9672 7.5 20H13.75C13.75 17.7047 13.8773 15.3797 14.1172 13.1625ZM13.7672 21.25H7.54219C7.65625 23.8188 8.1125 26.2422 8.84844 28.4273C10.4977 27.7391 12.2672 27.2039 14.1172 26.8391C13.9203 25.0211 13.8039 23.1352 13.7672 21.25ZM7.7125 28.9234C6.90781 26.5875 6.41094 23.9953 6.29375 21.25H1.31406C1.54609 24.7586 2.73594 28.0039 4.64219 30.7234C5.59141 30.0578 6.6125 29.4516 7.7125 28.9234ZM5.39141 31.725C7.47109 34.3125 10.225 36.325 13.3828 37.5227C11.2109 35.7789 9.40469 33.2 8.15 30.0938C7.1625 30.5727 6.24766 31.1266 5.39141 31.725ZM26.6172 37.5211C29.775 36.325 32.5289 34.3125 34.6086 31.7234C33.7523 31.125 32.8375 30.5727 31.85 30.0922C30.5953 33.1984 28.7898 35.7789 26.6172 37.5211ZM33.75 20H38.75C38.75 16.0125 37.4891 12.3187 35.3586 9.27656C34.4102 9.94219 33.3875 10.5484 32.2875 11.0766C33.2148 13.7664 33.75 16.7914 33.75 20ZM34.6102 8.275C32.5289 5.6875 29.775 3.675 26.6187 2.47734C28.7898 4.22031 30.5961 6.8 31.8516 9.90625C32.8391 9.42656 33.7539 8.87344 34.6102 8.275ZM13.3828 2.47891C10.225 3.675 7.47109 5.6875 5.39141 8.275C6.24766 8.87344 7.16094 9.42734 8.15 9.90781C9.40469 6.80156 11.2102 4.2211 13.3828 2.47891ZM4.64219 9.27656C2.51094 12.3187 1.25 16.0125 1.25 20H6.25C6.25 16.7914 6.78516 13.7664 7.7125 11.0766C6.6125 10.5484 5.58984 9.94219 4.64219 9.27656Z" fill="#FB8A2E"/>
</g>
</g>
<defs>
<clipPath id="clip0_157_1221">
<rect width="40" height="40" fill="white" transform="matrix(1 0 0 -1 0 40)"/>
</clipPath>
</defs>
</svg>
