<svg width="24" height="25" viewBox="0 0 24 25" fill="none" xmlns="http://www.w3.org/2000/svg">
<g id="vuesax/outline/heart">
<g id="vuesax/outline/heart_2">
<g id="heart">
<path id="Vector" d="M12 21.9016C11.69 21.9016 11.39 21.8616 11.14 21.7716C7.32 20.4616 1.25 15.8116 1.25 8.94156C1.25 5.44156 4.08 2.60156 7.56 2.60156C9.25 2.60156 10.83 3.26156 12 4.44156C13.17 3.26156 14.75 2.60156 16.44 2.60156C19.92 2.60156 22.75 5.45156 22.75 8.94156C22.75 15.8216 16.68 20.4616 12.86 21.7716C12.61 21.8616 12.31 21.9016 12 21.9016ZM7.56 4.10156C4.91 4.10156 2.75 6.27156 2.75 8.94156C2.75 15.7716 9.32 19.5716 11.63 20.3616C11.81 20.4216 12.2 20.4216 12.38 20.3616C14.68 19.5716 21.26 15.7816 21.26 8.94156C21.26 6.27156 19.1 4.10156 16.45 4.10156C14.93 4.10156 13.52 4.81156 12.61 6.04156C12.33 6.42156 11.69 6.42156 11.41 6.04156C10.48 4.80156 9.08 4.10156 7.56 4.10156Z" fill="#171719"/>
</g>
</g>
</g>
</svg>
