<svg width="48" height="49" viewBox="0 0 48 49" fill="none" xmlns="http://www.w3.org/2000/svg">
<rect x="3" y="3.50293" width="42" height="42" rx="6" fill="url(#paint0_radial_265_12991)"/>
<rect x="3" y="3.50293" width="42" height="42" rx="6" fill="url(#paint1_radial_265_12991)"/>
<rect x="3" y="3.50293" width="42" height="42" rx="6" fill="url(#paint2_radial_265_12991)"/>
<path d="M34.5 16.2529C34.5 17.4956 33.4926 18.5029 32.25 18.5029C31.0074 18.5029 30 17.4956 30 16.2529C30 15.0103 31.0074 14.0029 32.25 14.0029C33.4926 14.0029 34.5 15.0103 34.5 16.2529Z" fill="white"/>
<path fill-rule="evenodd" clip-rule="evenodd" d="M24 32.0029C28.1421 32.0029 31.5 28.6451 31.5 24.5029C31.5 20.3608 28.1421 17.0029 24 17.0029C19.8579 17.0029 16.5 20.3608 16.5 24.5029C16.5 28.6451 19.8579 32.0029 24 32.0029ZM24 29.0029C26.4853 29.0029 28.5 26.9882 28.5 24.5029C28.5 22.0176 26.4853 20.0029 24 20.0029C21.5147 20.0029 19.5 22.0176 19.5 24.5029C19.5 26.9882 21.5147 29.0029 24 29.0029Z" fill="white"/>
<path fill-rule="evenodd" clip-rule="evenodd" d="M9 23.9029C9 18.8625 9 16.3422 9.98094 14.417C10.8438 12.7236 12.2206 11.3467 13.9141 10.4839C15.8393 9.50293 18.3595 9.50293 23.4 9.50293H24.6C29.6405 9.50293 32.1607 9.50293 34.0859 10.4839C35.7794 11.3467 37.1562 12.7236 38.0191 14.417C39 16.3422 39 18.8625 39 23.9029V25.1029C39 30.1434 39 32.6636 38.0191 34.5888C37.1562 36.2823 35.7794 37.6591 34.0859 38.522C32.1607 39.5029 29.6405 39.5029 24.6 39.5029H23.4C18.3595 39.5029 15.8393 39.5029 13.9141 38.522C12.2206 37.6591 10.8438 36.2823 9.98094 34.5888C9 32.6636 9 30.1434 9 25.1029V23.9029ZM23.4 12.5029H24.6C27.1697 12.5029 28.9166 12.5053 30.2669 12.6156C31.5821 12.723 32.2547 12.9178 32.7239 13.1569C33.8529 13.7321 34.7708 14.65 35.346 15.779C35.5851 16.2482 35.7799 16.9208 35.8873 18.236C35.9977 19.5863 36 21.3332 36 23.9029V25.1029C36 27.6727 35.9977 29.4195 35.8873 30.7698C35.7799 32.0851 35.5851 32.7577 35.346 33.2269C34.7708 34.3558 33.8529 35.2737 32.7239 35.849C32.2547 36.088 31.5821 36.2828 30.2669 36.3903C28.9166 36.5006 27.1697 36.5029 24.6 36.5029H23.4C20.8303 36.5029 19.0834 36.5006 17.7331 36.3903C16.4179 36.2828 15.7453 36.088 15.2761 35.849C14.1471 35.2737 13.2292 34.3558 12.654 33.2269C12.4149 32.7577 12.2201 32.0851 12.1127 30.7698C12.0023 29.4195 12 27.6727 12 25.1029V23.9029C12 21.3332 12.0023 19.5863 12.1127 18.236C12.2201 16.9208 12.4149 16.2482 12.654 15.779C13.2292 14.65 14.1471 13.7321 15.2761 13.1569C15.7453 12.9178 16.4179 12.723 17.7331 12.6156C19.0834 12.5053 20.8303 12.5029 23.4 12.5029Z" fill="white"/>
<defs>
<radialGradient id="paint0_radial_265_12991" cx="0" cy="0" r="1" gradientUnits="userSpaceOnUse" gradientTransform="translate(18 35.0029) rotate(-55.3758) scale(38.2794)">
<stop stop-color="#B13589"/>
<stop offset="0.79309" stop-color="#C62F94"/>
<stop offset="1" stop-color="#8A3AC8"/>
</radialGradient>
<radialGradient id="paint1_radial_265_12991" cx="0" cy="0" r="1" gradientUnits="userSpaceOnUse" gradientTransform="translate(16.5 47.0029) rotate(-65.1363) scale(33.8914)">
<stop stop-color="#E0E8B7"/>
<stop offset="0.444662" stop-color="#FB8A2E"/>
<stop offset="0.71474" stop-color="#E2425C"/>
<stop offset="1" stop-color="#E2425C" stop-opacity="0"/>
</radialGradient>
<radialGradient id="paint2_radial_265_12991" cx="0" cy="0" r="1" gradientUnits="userSpaceOnUse" gradientTransform="translate(0.750002 5.00293) rotate(-8.1301) scale(58.3363 12.4775)">
<stop offset="0.156701" stop-color="#406ADC"/>
<stop offset="0.467799" stop-color="#6A45BE"/>
<stop offset="1" stop-color="#6A45BE" stop-opacity="0"/>
</radialGradient>
</defs>
</svg>
