<svg width="126" height="65" viewBox="0 0 126 65" fill="none" xmlns="http://www.w3.org/2000/svg">
<g id="Frame 209">
<g id="Group">
<path id="Vector" d="M77.2768 24.1439V18.6198C77.2768 17.2594 77.0432 16.0638 76.5828 15.0332C76.1843 14.1331 75.6209 13.3774 74.9613 12.7521C73.8002 11.6597 72.3917 10.9588 70.9282 10.3611C68.7226 9.46787 66.3453 8.78079 64.2635 7.65398C63.2191 7.09744 62.2503 6.43784 61.3984 5.60648C60.5395 4.77511 59.7768 3.7651 59.1653 2.47339L56.7949 3.59333C58.0866 6.34852 60.0242 8.18303 62.0923 9.44726C63.6451 10.4023 65.2666 11.055 66.7919 11.6253C67.9394 12.0513 69.0387 12.4292 70.0144 12.8346C71.4916 13.4392 72.6665 14.0988 73.4223 14.937C73.8002 15.363 74.0956 15.8302 74.3086 16.4143C74.5216 16.9983 74.6453 17.7128 74.6453 18.6129V24.137H77.2768V24.1439Z" fill="#171719"/>
<path id="Vector_2" d="M40.9567 30.3209C40.9567 30.3209 40.9567 28.4176 40.9567 25.9991C40.9567 23.5806 40.9567 20.6468 40.9567 18.5993C40.9567 17.5343 41.1354 16.7373 41.4239 16.0914C41.6781 15.528 42.0148 15.0745 42.4546 14.6554C43.2172 13.9271 44.3303 13.3362 45.6701 12.7934C47.6832 11.9689 50.1773 11.2612 52.5821 9.9764C53.7845 9.33054 54.9732 8.5404 56.045 7.49604C57.1168 6.45854 58.3605 5.25615 59.1025 3.67587L56.6428 2.48035C55.5778 4.7271 53.8876 6.12187 52.1355 7.20059C50.8301 8.00448 49.3734 8.60224 47.8894 9.1519C46.7832 9.56415 45.6632 9.94891 44.5845 10.3955C42.9767 11.062 41.4239 11.8521 40.2284 13.1645C39.6307 13.8172 39.1428 14.6073 38.8199 15.5143C38.4901 16.4281 38.3252 17.4518 38.3252 18.5993C38.3252 22.7011 38.3252 30.3277 38.3252 30.3277H40.9567V30.3209Z" fill="#171719"/>
<path id="Vector_3" d="M74.6172 26.7893V31.5508H77.2487V26.7893" fill="#171719"/>
<path id="Vector_4" d="M77.249 30.6575H70.7012V33.2959H77.249" fill="#171719"/>
<path id="Vector_5" d="M70.7004 32.0523V30.7331H67.5192V29.4071H69.3812V32.0523H70.7004V30.7331V32.0523H72.0196L72.0128 26.7687H64.8809V33.3646H72.0196V32.0523H70.7004Z" fill="#171719"/>
<path id="Vector_6" d="M69.3809 31.4065V39.04H72.0192L72.0124 31.4065" fill="#171719"/>
<path id="Vector_7" d="M60.9238 26.8098V39.0398H63.5622V26.8098" fill="#171719"/>
<path id="Vector_8" d="M56.4023 19.3826V33.3028H59.0339V19.3826" fill="#171719"/>
<path id="Vector_9" d="M51.792 26.7961V31.8737H54.4235V26.7961" fill="#171719"/>
<path id="Vector_10" d="M54.4245 30.6575H46.0215V33.289H54.4245" fill="#171719"/>
<path id="Vector_11" d="M46.0215 31.2759V37.81H48.6805V31.2759" fill="#171719"/>
<path id="Vector_12" d="M74.6172 33.6462V39.0398H77.2487V33.6462" fill="#171719"/>
<path id="Vector_13" d="M48.6797 36.4084H39.6309V39.04H48.6797" fill="#171719"/>
<path id="Vector_14" d="M38.3115 30.6714V39.04H40.9499V30.6714" fill="#171719"/>
<path id="Vector_15" d="M74.6172 24.522V26.4252H77.2487V24.522" fill="#171719"/>
<path id="Vector_16" d="M51.7783 24.5082V26.432H54.4098V24.5082" fill="#171719"/>
<path id="Vector_17" d="M57.7971 4.00568L56.4023 2.92009L57.9002 0L59.2743 2.7071L57.7971 4.00568Z" fill="#171719"/>
<path id="Vector_18" d="M57.9002 3.13998L57.3643 3.04379L57.9002 1.89636L58.443 3.03005L57.9002 3.13998Z" fill="white"/>
<path id="Vector_19" d="M76.3616 24.1439C76.3616 24.1439 76.3616 22.6186 76.3616 20.9765C76.3616 20.1588 76.3616 19.3137 76.3616 18.6129C76.3616 16.0913 75.4753 14.3805 74.0736 13.185C73.0293 12.2849 71.7307 11.6597 70.3222 11.1031C68.2128 10.2649 65.8493 9.56406 63.7125 8.38915C61.5688 7.21425 59.6518 5.58586 58.367 2.85815L57.6387 3.20169C58.8479 5.77825 60.6275 7.46159 62.5857 8.66399C65.5126 10.4641 68.8312 11.2131 71.3459 12.4154C72.6033 13.0132 73.6545 13.714 74.3828 14.6691C75.1111 15.631 75.5509 16.8609 75.5577 18.6129C75.5577 19.3069 75.5577 20.152 75.5577 20.9696C75.5577 22.6049 75.5577 24.1302 75.5577 24.137H76.3616V24.1439Z" fill="white"/>
<path id="Vector_20" d="M77.269 39.5002H38.3184V48.5491H77.269V39.5002Z" fill="#171719"/>
<path id="Vector_21" d="M40.0363 30.369C40.0363 30.369 40.0363 28.4589 40.0363 26.0335C40.0363 23.6081 40.0363 20.6743 40.0363 18.6199C40.0431 16.2838 40.8264 14.8616 42.0906 13.7691C43.9939 12.127 47.0995 11.3369 50.2119 10.052C53.3175 8.76032 56.4506 6.9052 58.2714 3.03006L57.5431 2.68652C56.4025 5.11192 54.7398 6.67159 52.8572 7.83276C50.0264 9.57794 46.6941 10.3612 44.0076 11.6392C42.6609 12.2782 41.4654 13.0546 40.6065 14.1676C39.7408 15.2807 39.2393 16.7304 39.2393 18.6199C39.2393 22.7287 39.2393 30.369 39.2393 30.369H40.0431H40.0363Z" fill="white"/>
<path id="Vector_22" d="M75.5312 33.5983V46.055H76.3351V33.5983" fill="white"/>
<path id="Vector_23" d="M58.2637 39.5002V46.055H59.0607V39.5002" fill="white"/>
<path id="Vector_24" d="M39.2324 39.4866V46.0551H40.0363V39.4866" fill="white"/>
<path id="Vector_25" d="M66.7705 42.2004V46.0618H67.5744V42.2004" fill="white"/>
<path id="Vector_26" d="M56.3887 42.2004V46.0618H57.1857V42.2004" fill="white"/>
<path id="Vector_27" d="M53.4688 42.2004V46.0618H54.2658V42.2004" fill="white"/>
<path id="Vector_28" d="M50.542 42.2004V46.0618H51.3459V42.2004" fill="white"/>
<path id="Vector_29" d="M75.9285 45.2581H58.2637V46.0619H75.9285" fill="white"/>
<path id="Vector_30" d="M56.8767 45.2581H39.6035V46.0619H56.8767" fill="white"/>
<path id="Vector_31" d="M63.1498 46.694H62.1055V47.4979H63.1498" fill="white"/>
<g id="Group_2">
<path id="Vector_32" d="M9.10382 64.3246H7.15938L2.02689 56.7049C1.89634 56.5125 1.78641 56.3132 1.70396 56.1071H1.66274C1.70396 56.327 1.72457 56.8011 1.72457 57.5294V64.3246H0V53.9565H2.07498L7.03571 61.3908C7.2487 61.6999 7.37925 61.9129 7.44108 62.0297H7.46857C7.42047 61.7549 7.39299 61.2877 7.39299 60.635V53.9565H9.11069V64.3246H9.10382Z" fill="#171719"/>
<path id="Vector_33" d="M15.5347 64.5031C13.9888 64.5031 12.7452 64.0153 11.8176 63.0465C10.8832 62.0777 10.4229 60.8204 10.4229 59.2676C10.4229 57.6048 10.8969 56.2719 11.8451 55.2756C12.7933 54.2794 14.085 53.7847 15.7134 53.7847C17.2249 53.7847 18.4342 54.2656 19.3549 55.2275C20.2756 56.1894 20.7359 57.4537 20.7359 59.0065C20.7359 60.6967 20.2618 62.0365 19.3205 63.019C18.3792 64.0016 17.115 64.4963 15.5347 64.4963M15.6172 55.2962C14.6347 55.2962 13.8308 55.6535 13.2124 56.3612C12.594 57.0689 12.2917 58.0033 12.2917 59.1576C12.2917 60.3119 12.594 61.2395 13.1918 61.9403C13.7895 62.6411 14.5728 62.9984 15.5416 62.9984C16.5722 62.9984 17.383 62.6617 17.9739 61.9953C18.5648 61.3288 18.8671 60.3875 18.8671 59.1851C18.8671 57.9827 18.5785 56.9933 18.0013 56.3131C17.4242 55.6398 16.6272 55.3031 15.6172 55.3031" fill="#171719"/>
<path id="Vector_34" d="M27.2632 64.5031C25.7173 64.5031 24.4737 64.0153 23.5461 63.0465C22.6117 62.0777 22.1514 60.8204 22.1514 59.2676C22.1514 57.6048 22.6255 56.2719 23.5736 55.2756C24.5218 54.2794 25.8135 53.7847 27.435 53.7847C28.9466 53.7847 30.1559 54.2656 31.0834 55.2275C32.0041 56.1894 32.4644 57.4537 32.4644 59.0065C32.4644 60.6967 31.9904 62.0365 31.0491 63.019C30.1078 64.0016 28.8435 64.4963 27.2632 64.4963M27.3457 55.2962C26.3632 55.2962 25.5593 55.6535 24.9409 56.3612C24.3225 57.0689 24.0134 58.0033 24.0134 59.1576C24.0134 60.3119 24.3157 61.2395 24.9134 61.9403C25.5112 62.6411 26.2945 62.9984 27.2632 62.9984C28.2939 62.9984 29.1046 62.6617 29.6955 61.9953C30.2864 61.3288 30.5887 60.3875 30.5887 59.1851C30.5887 57.9827 30.3001 56.9933 29.723 56.3131C29.1458 55.6398 28.3488 55.3031 27.3388 55.3031" fill="#171719"/>
<path id="Vector_35" d="M42.2345 64.3246H40.1526L38.4349 61.5488C38.2838 61.2946 38.1326 61.0747 37.9814 60.8961C37.8372 60.7175 37.686 60.5663 37.5348 60.4495C37.3837 60.3327 37.2188 60.2502 37.0401 60.1953C36.8615 60.1403 36.6554 60.1128 36.4355 60.1128H35.7141V64.3178H33.9414V53.9497H37.473C37.9746 53.9497 38.4418 54.0047 38.8678 54.1215C39.2938 54.2383 39.6648 54.4101 39.974 54.6437C40.29 54.8773 40.5374 55.1658 40.7091 55.5162C40.8878 55.8667 40.9771 56.272 40.9771 56.7393C40.9771 57.1034 40.9221 57.4401 40.8053 57.7493C40.6954 58.0584 40.5305 58.3264 40.3244 58.5669C40.1183 58.8074 39.8709 59.0066 39.5755 59.1784C39.2869 59.3502 38.9571 59.4738 38.5929 59.57V59.5975C38.7853 59.7074 38.9571 59.8242 39.1014 59.9479C39.2457 60.0785 39.3831 60.209 39.5136 60.3396C39.6442 60.477 39.7747 60.6281 39.8984 60.7999C40.0289 60.9717 40.1664 61.1709 40.3244 61.3977L42.2345 64.3109V64.3246ZM35.7072 55.3514V58.718H37.1913C37.4661 58.718 37.7203 58.6768 37.954 58.5944C38.1876 58.5119 38.3868 58.3951 38.5586 58.2371C38.7304 58.0791 38.8609 57.8936 38.9571 57.6737C39.0533 57.4538 39.1014 57.2065 39.1014 56.9316C39.1014 56.4369 38.9365 56.0453 38.6136 55.7705C38.2906 55.4888 37.8234 55.3514 37.2119 55.3514H35.7141H35.7072Z" fill="#171719"/>
<path id="Vector_36" d="M53.2276 64.3246H51.2695L50.3007 61.6862H46.0751L45.1476 64.3246H43.2031L47.2225 53.9565H49.2288L53.2208 64.3246H53.2276ZM49.8335 60.2846L48.3425 56.1483C48.3013 56.0109 48.2463 55.7979 48.1982 55.4956H48.1707C48.1295 55.7704 48.0745 55.9834 48.0196 56.1483L46.5423 60.2846H49.8335Z" fill="#171719"/>
<path id="Vector_37" d="M63.7884 64.3246H61.8439L56.7115 56.7049C56.5809 56.5125 56.471 56.3132 56.3885 56.1071H56.3473C56.3885 56.327 56.4091 56.8011 56.4091 57.5294V64.3246H54.6846V53.9565H56.7596L61.7203 61.3908C61.9333 61.6999 62.0638 61.9129 62.1256 62.0297H62.1531C62.105 61.7549 62.0776 61.2877 62.0776 60.635V53.9565H63.7953V64.3246H63.7884Z" fill="#171719"/>
<path id="Vector_38" d="M67.6158 53.9634H65.7812V64.3314H67.6158V53.9634Z" fill="#171719"/>
<path id="Vector_39" d="M81.3915 64.3246H75.4414V53.9634H77.2278V62.8748H81.3915V64.3246Z" fill="#171719"/>
<path id="Vector_40" d="M85.6919 53.9634H83.8574V64.3314H85.6919V53.9634Z" fill="#171719"/>
<path id="Vector_41" d="M89.2588 64.3246V53.9565H92.6667C93.7042 53.9565 94.5287 54.1764 95.1334 54.6161C95.738 55.0559 96.0403 55.6261 96.0403 56.3338C96.0403 56.9247 95.8685 57.4332 95.525 57.866C95.1815 58.2989 94.7005 58.6081 94.0959 58.7936V58.8211C94.8379 58.9035 95.4288 59.1646 95.8685 59.6112C96.3083 60.0578 96.5281 60.635 96.5281 61.3495C96.5281 62.2359 96.164 62.9573 95.4425 63.507C94.7211 64.0566 93.8073 64.3315 92.7011 64.3315H89.252L89.2588 64.3246ZM91.0315 55.3376V58.2852H92.1858C92.8042 58.2852 93.292 58.1477 93.6424 57.8592C93.9928 57.5775 94.1715 57.179 94.1715 56.6636C94.1715 55.7773 93.5599 55.3307 92.3301 55.3307H91.0315V55.3376ZM91.0315 59.6662V62.9504H92.5499C93.2164 62.9504 93.7248 62.8061 94.089 62.5038C94.4531 62.2084 94.6318 61.7961 94.6318 61.2808C94.6318 60.2021 93.8623 59.6662 92.3163 59.6662H91.0246H91.0315Z" fill="#171719"/>
<path id="Vector_42" d="M108.271 64.3246H106.312L105.344 61.6862H101.118L100.191 64.3246H98.2461L102.266 53.9565H104.272L108.264 64.3246H108.271ZM104.876 60.2846L103.385 56.1483C103.344 56.0109 103.296 55.7979 103.241 55.4956H103.214C103.166 55.7704 103.118 55.9834 103.063 56.1483L101.585 60.2846H104.876Z" fill="#171719"/>
<path id="Vector_43" d="M110.174 63.9123V62.1259C110.339 62.2702 110.538 62.4007 110.765 62.5175C110.991 62.6343 111.239 62.7305 111.493 62.813C111.747 62.8954 112.008 62.9573 112.263 62.9985C112.517 63.0397 112.757 63.0603 112.97 63.0603C113.726 63.0603 114.289 62.9367 114.66 62.6962C115.031 62.4557 115.217 62.0984 115.217 61.6381C115.217 61.3907 115.155 61.1777 115.031 60.9922C114.908 60.8067 114.736 60.6418 114.516 60.4907C114.296 60.3395 114.035 60.1952 113.733 60.0578C113.437 59.9204 113.115 59.7761 112.771 59.6249C112.407 59.4394 112.063 59.2402 111.747 59.0478C111.431 58.8554 111.156 58.6424 110.923 58.4019C110.689 58.1683 110.504 57.9004 110.373 57.6049C110.243 57.3095 110.174 56.9591 110.174 56.5606C110.174 56.0727 110.291 55.6467 110.517 55.2826C110.744 54.9184 111.046 54.623 111.424 54.3894C111.802 54.1558 112.228 53.9771 112.702 53.8672C113.183 53.7504 113.671 53.6954 114.166 53.6954C115.299 53.6954 116.124 53.8191 116.639 54.0665V55.7773C116.028 55.3513 115.238 55.1383 114.269 55.1383C114.001 55.1383 113.733 55.1658 113.472 55.2139C113.211 55.262 112.97 55.3444 112.764 55.4544C112.558 55.5643 112.386 55.7086 112.256 55.8804C112.125 56.0521 112.056 56.2651 112.056 56.5125C112.056 56.7461 112.105 56.9453 112.208 57.1171C112.311 57.2889 112.455 57.44 112.647 57.5843C112.84 57.7217 113.08 57.8591 113.355 57.9966C113.637 58.1271 113.96 58.2714 114.324 58.4294C114.702 58.6149 115.059 58.8142 115.389 59.0272C115.725 59.2333 116.021 59.4669 116.275 59.7211C116.529 59.9753 116.729 60.2502 116.88 60.5594C117.031 60.8686 117.1 61.219 117.1 61.6106C117.1 62.1397 116.99 62.5863 116.77 62.9504C116.55 63.3146 116.248 63.61 115.877 63.8367C115.499 64.0635 115.073 64.2284 114.585 64.3314C114.097 64.4345 113.582 64.4826 113.039 64.4826C112.86 64.4826 112.634 64.4689 112.372 64.4414C112.111 64.4139 111.837 64.3727 111.562 64.3246C111.287 64.2765 111.026 64.2146 110.778 64.1391C110.531 64.0635 110.332 63.981 110.181 63.8917" fill="#171719"/>
<path id="Vector_44" d="M121.723 57.0621C120.713 57.0621 119.888 56.7392 119.235 56.0865C118.583 55.4337 118.26 54.6161 118.26 53.6404C118.26 52.6648 118.596 51.8746 119.263 51.2288C119.929 50.5829 120.761 50.26 121.757 50.26C122.753 50.26 123.571 50.5761 124.23 51.2082C124.89 51.8403 125.199 52.6511 125.179 53.6473C125.179 54.6092 124.849 55.42 124.189 56.0796C123.53 56.7392 122.705 57.069 121.723 57.069V57.0621ZM121.723 50.8784C120.912 50.8784 120.245 51.1395 119.716 51.6685C119.187 52.1976 118.926 52.8572 118.926 53.6542C118.926 54.4512 119.194 55.1245 119.73 55.6467C120.266 56.1689 120.933 56.4369 121.73 56.4369C122.527 56.4369 123.172 56.1689 123.715 55.6398C124.258 55.1108 124.519 54.4512 124.519 53.6542C124.519 52.8572 124.251 52.1838 123.722 51.6617C123.193 51.1395 122.527 50.8715 121.73 50.8715L121.723 50.8784ZM123.152 55.2207H122.231L121.963 54.3962C121.867 54.1077 121.736 53.9634 121.571 53.9634H121.358V55.2207H120.582V51.9502H121.716C122.588 51.9502 123.028 52.2594 123.028 52.8847C123.028 53.3313 122.774 53.6198 122.259 53.7504V53.7641C122.472 53.8122 122.636 53.984 122.76 54.2794L123.152 55.2207ZM121.214 52.3075V53.3175H121.654C122.073 53.3175 122.286 53.1457 122.286 52.7953C122.286 52.4724 122.046 52.3075 121.558 52.3075H121.214Z" fill="#171719"/>
</g>
</g>
</g>
</svg>
