<svg width="24" height="25" viewBox="0 0 24 25" fill="none" xmlns="http://www.w3.org/2000/svg">
<g id="logout">
<g id="vuesax/outline/logout">
<g id="logout_2">
<path id="Vector" d="M15.2405 22.7736H15.1105C10.6705 22.7736 8.5305 21.0236 8.1605 17.1036C8.1205 16.6936 8.4205 16.3236 8.8405 16.2836C9.2405 16.2436 9.6205 16.5536 9.6605 16.9636C9.9505 20.1036 11.4305 21.2736 15.1205 21.2736H15.2505C19.3205 21.2736 20.7605 19.8336 20.7605 15.7636V9.24364C20.7605 5.17364 19.3205 3.73364 15.2505 3.73364H15.1205C11.4105 3.73364 9.9305 4.92364 9.6605 8.12364C9.6105 8.53364 9.2605 8.84364 8.8405 8.80364C8.4205 8.77364 8.1205 8.40364 8.1505 7.99364C8.4905 4.01364 10.6405 2.23364 15.1105 2.23364H15.2405C20.1505 2.23364 22.2505 4.33364 22.2505 9.24364V15.7636C22.2505 20.6736 20.1505 22.7736 15.2405 22.7736Z" fill="#171719"/>
<path id="Vector_2" d="M15.0011 13.2532H3.62109C3.21109 13.2532 2.87109 12.9132 2.87109 12.5032C2.87109 12.0932 3.21109 11.7532 3.62109 11.7532H15.0011C15.4111 11.7532 15.7511 12.0932 15.7511 12.5032C15.7511 12.9132 15.4111 13.2532 15.0011 13.2532Z" fill="#171719"/>
<path id="Vector_3" d="M5.85141 16.603C5.66141 16.603 5.47141 16.533 5.32141 16.383L1.97141 13.033C1.68141 12.743 1.68141 12.263 1.97141 11.973L5.32141 8.62302C5.61141 8.33302 6.09141 8.33302 6.38141 8.62302C6.67141 8.91302 6.67141 9.39302 6.38141 9.68302L3.56141 12.503L6.38141 15.323C6.67141 15.613 6.67141 16.093 6.38141 16.383C6.24141 16.533 6.04141 16.603 5.85141 16.603Z" fill="#171719"/>
</g>
</g>
</g>
</svg>
