<svg width="24" height="25" viewBox="0 0 24 25" fill="none" xmlns="http://www.w3.org/2000/svg">
<g id="order">
<g id="vuesax/outline/box-tick">
<g id="box-tick">
<path id="Vector" d="M19.001 23.2533C17.381 23.2533 15.851 22.4134 14.991 21.0334C14.531 20.3234 14.271 19.4733 14.251 18.6033C14.221 17.1433 14.8411 15.7833 15.9511 14.8633C16.7811 14.1733 17.8211 13.7833 18.8911 13.7533C20.1911 13.7433 21.361 14.1933 22.281 15.0733C23.201 15.9533 23.721 17.1334 23.741 18.4034C23.761 19.2734 23.541 20.1233 23.101 20.8733C22.861 21.2933 22.551 21.6833 22.181 22.0133C21.361 22.7833 20.261 23.2333 19.091 23.2533C19.071 23.2533 19.041 23.2533 19.001 23.2533ZM19.001 15.2533C18.981 15.2533 18.951 15.2533 18.931 15.2533C18.191 15.2733 17.491 15.5333 16.911 16.0133C16.151 16.6433 15.731 17.5733 15.751 18.5733C15.761 19.1633 15.941 19.7433 16.251 20.2333C16.861 21.2133 17.921 21.8133 19.061 21.7533C19.851 21.7333 20.6011 21.4334 21.1711 20.9034C21.4311 20.6734 21.641 20.4133 21.801 20.1333C22.101 19.6133 22.251 19.0333 22.241 18.4433C22.221 17.5733 21.871 16.7633 21.241 16.1633C20.641 15.5733 19.841 15.2533 19.001 15.2533Z" fill="#171719"/>
<path id="Vector_2" d="M18.4489 20.2529C18.2589 20.2529 18.0789 20.1828 17.9289 20.0428L16.9189 19.0829C16.6189 18.7929 16.6089 18.3229 16.8989 18.0229C17.1889 17.7229 17.6589 17.7129 17.9589 18.0029L18.4489 18.4728L20.0189 16.9529C20.3189 16.6629 20.7889 16.6728 21.0789 16.9728C21.3689 17.2728 21.3589 17.7429 21.0589 18.0329L18.9689 20.0528C18.8189 20.1828 18.6289 20.2529 18.4489 20.2529Z" fill="#171719"/>
<path id="Vector_3" d="M11.9974 13.803C11.8674 13.803 11.7374 13.7731 11.6174 13.7031L2.78741 8.59307C2.42741 8.38307 2.30739 7.92305 2.51739 7.56305C2.72739 7.20305 3.18741 7.08303 3.53741 7.29303L11.9874 12.183L20.3874 7.32305C20.7474 7.11305 21.2074 7.24307 21.4074 7.59307C21.6174 7.95307 21.4874 8.41304 21.1374 8.62304L12.3674 13.7031C12.2574 13.7631 12.1274 13.803 11.9974 13.803Z" fill="#171719"/>
<path id="Vector_4" d="M12 22.8632C11.59 22.8632 11.25 22.5232 11.25 22.1132V13.0432C11.25 12.6332 11.59 12.2932 12 12.2932C12.41 12.2932 12.75 12.6332 12.75 13.0432V22.1132C12.75 22.5232 12.41 22.8632 12 22.8632Z" fill="#171719"/>
<path id="Vector_5" d="M11.9989 23.2531C11.1189 23.2531 10.2389 23.0631 9.5589 22.6731L4.2189 19.7131C2.7689 18.9131 1.62891 16.9831 1.62891 15.3231V9.66307C1.62891 8.00307 2.7689 6.08312 4.2189 5.27312L9.5589 2.3131C10.9189 1.5431 13.0589 1.5431 14.4289 2.3131L19.7689 5.27312C21.2189 6.07312 22.3589 8.00307 22.3589 9.66307V15.3231C22.3589 15.4231 22.3589 15.5031 22.3389 15.6031C22.2889 15.8631 22.0989 16.0831 21.8489 16.1631C21.5989 16.2531 21.3189 16.1931 21.1089 16.0231C19.9589 15.0231 18.1789 14.9831 16.9689 15.9531C16.1989 16.5631 15.7489 17.4931 15.7489 18.4831C15.7489 19.0731 15.9089 19.6531 16.2189 20.1531C16.2989 20.2931 16.3789 20.4031 16.4689 20.5131C16.6189 20.6831 16.6789 20.9131 16.6389 21.1331C16.5989 21.3531 16.4589 21.5431 16.2589 21.6531L14.4289 22.6631C13.7489 23.0631 12.8789 23.2531 11.9989 23.2531ZM11.9989 3.2531C11.3789 3.2531 10.7489 3.3831 10.2989 3.6331L4.95889 6.59312C3.98889 7.12313 3.1489 8.56307 3.1489 9.66307V15.3231C3.1489 16.4231 3.99889 17.8631 4.95889 18.3931L10.2989 21.3531C11.2089 21.8631 12.7989 21.8631 13.7089 21.3531L14.8289 20.7331C14.4589 20.0631 14.2589 19.2831 14.2589 18.4831C14.2589 17.0231 14.9089 15.6731 16.0389 14.7731C17.3989 13.6831 19.3389 13.4531 20.8689 14.1031V9.64311C20.8689 8.54311 20.0189 7.10311 19.0589 6.57311L13.7189 3.61308C13.2489 3.38308 12.6189 3.2531 11.9989 3.2531Z" fill="#171719"/>
</g>
</g>
</g>
</svg>
