<svg width="96" height="17" viewBox="0 0 96 17" fill="none" xmlns="http://www.w3.org/2000/svg">
<path d="M3.8269 10.6698C3.90023 10.3431 3.7669 9.87643 3.53357 9.64309L1.91356 8.02309C1.4069 7.51643 1.2069 6.97643 1.35356 6.50976C1.5069 6.04309 1.98023 5.72309 2.6869 5.60309L4.7669 5.25643C5.0669 5.20309 5.43356 4.93643 5.57356 4.66309L6.72023 2.36309C7.05357 1.70309 7.5069 1.33643 8.00023 1.33643C8.49357 1.33643 8.9469 1.70309 9.28023 2.36309L10.4269 4.66309C10.5136 4.83643 10.6936 5.00309 10.8869 5.11643L3.7069 12.2964C3.61356 12.3898 3.45356 12.3031 3.48023 12.1698L3.8269 10.6698Z" fill="#FB8A2E"/>
<path d="M12.4667 9.64319C12.2267 9.88319 12.0934 10.3432 12.1734 10.6699L12.6334 12.6765C12.8267 13.5099 12.7067 14.1365 12.2934 14.4365C12.1267 14.5565 11.9267 14.6165 11.6934 14.6165C11.3534 14.6165 10.9534 14.4899 10.5134 14.2299L8.56003 13.0699C8.25337 12.8899 7.7467 12.8899 7.44003 13.0699L5.4867 14.2299C4.7467 14.6632 4.11337 14.7365 3.7067 14.4365C3.55337 14.3232 3.44003 14.1699 3.3667 13.9699L11.4734 5.86319C11.78 5.55652 12.2134 5.41652 12.6334 5.48985L13.3067 5.60319C14.0134 5.72319 14.4867 6.04319 14.64 6.50985C14.7867 6.97652 14.5867 7.51652 14.08 8.02319L12.4667 9.64319Z" fill="#FB8A2E"/>
<path d="M23.8269 10.6698C23.9002 10.3431 23.7669 9.87643 23.5336 9.64309L21.9136 8.02309C21.4069 7.51643 21.2069 6.97643 21.3536 6.50976C21.5069 6.04309 21.9802 5.72309 22.6869 5.60309L24.7669 5.25643C25.0669 5.20309 25.4336 4.93643 25.5736 4.66309L26.7202 2.36309C27.0536 1.70309 27.5069 1.33643 28.0002 1.33643C28.4936 1.33643 28.9469 1.70309 29.2802 2.36309L30.4269 4.66309C30.5136 4.83643 30.6936 5.00309 30.8869 5.11643L23.7069 12.2964C23.6136 12.3898 23.4536 12.3031 23.4802 12.1698L23.8269 10.6698Z" fill="#FB8A2E"/>
<path d="M32.4667 9.64319C32.2267 9.88319 32.0934 10.3432 32.1734 10.6699L32.6334 12.6765C32.8267 13.5099 32.7067 14.1365 32.2934 14.4365C32.1267 14.5565 31.9267 14.6165 31.6934 14.6165C31.3534 14.6165 30.9534 14.4899 30.5134 14.2299L28.56 13.0699C28.2534 12.8899 27.7467 12.8899 27.44 13.0699L25.4867 14.2299C24.7467 14.6632 24.1134 14.7365 23.7067 14.4365C23.5534 14.3232 23.44 14.1699 23.3667 13.9699L31.4734 5.86319C31.78 5.55652 32.2134 5.41652 32.6334 5.48985L33.3067 5.60319C34.0134 5.72319 34.4867 6.04319 34.64 6.50985C34.7867 6.97652 34.5867 7.51652 34.08 8.02319L32.4667 9.64319Z" fill="#FB8A2E"/>
<path d="M43.8269 10.6698C43.9002 10.3431 43.7669 9.87643 43.5336 9.64309L41.9136 8.02309C41.4069 7.51643 41.2069 6.97643 41.3536 6.50976C41.5069 6.04309 41.9802 5.72309 42.6869 5.60309L44.7669 5.25643C45.0669 5.20309 45.4336 4.93643 45.5736 4.66309L46.7202 2.36309C47.0536 1.70309 47.5069 1.33643 48.0002 1.33643C48.4936 1.33643 48.9469 1.70309 49.2802 2.36309L50.4269 4.66309C50.5136 4.83643 50.6936 5.00309 50.8869 5.11643L43.7069 12.2964C43.6136 12.3898 43.4536 12.3031 43.4802 12.1698L43.8269 10.6698Z" fill="#FB8A2E"/>
<path d="M52.4667 9.64319C52.2267 9.88319 52.0934 10.3432 52.1734 10.6699L52.6334 12.6765C52.8267 13.5099 52.7067 14.1365 52.2934 14.4365C52.1267 14.5565 51.9267 14.6165 51.6934 14.6165C51.3534 14.6165 50.9534 14.4899 50.5134 14.2299L48.56 13.0699C48.2534 12.8899 47.7467 12.8899 47.44 13.0699L45.4867 14.2299C44.7467 14.6632 44.1134 14.7365 43.7067 14.4365C43.5534 14.3232 43.44 14.1699 43.3667 13.9699L51.4734 5.86319C51.78 5.55652 52.2134 5.41652 52.6334 5.48985L53.3067 5.60319C54.0134 5.72319 54.4867 6.04319 54.64 6.50985C54.7867 6.97652 54.5867 7.51652 54.08 8.02319L52.4667 9.64319Z" fill="#FB8A2E"/>
<path d="M63.8269 10.6698C63.9002 10.3431 63.7669 9.87643 63.5336 9.64309L61.9136 8.02309C61.4069 7.51643 61.2069 6.97643 61.3536 6.50976C61.5069 6.04309 61.9802 5.72309 62.6869 5.60309L64.7669 5.25643C65.0669 5.20309 65.4336 4.93643 65.5736 4.66309L66.7202 2.36309C67.0536 1.70309 67.5069 1.33643 68.0002 1.33643C68.4936 1.33643 68.9469 1.70309 69.2802 2.36309L70.4269 4.66309C70.5136 4.83643 70.6936 5.00309 70.8869 5.11643L63.7069 12.2964C63.6136 12.3898 63.4536 12.3031 63.4802 12.1698L63.8269 10.6698Z" fill="#FB8A2E"/>
<path d="M72.4667 9.64319C72.2267 9.88319 72.0934 10.3432 72.1734 10.6699L72.6334 12.6765C72.8267 13.5099 72.7067 14.1365 72.2934 14.4365C72.1267 14.5565 71.9267 14.6165 71.6934 14.6165C71.3534 14.6165 70.9534 14.4899 70.5134 14.2299L68.56 13.0699C68.2534 12.8899 67.7467 12.8899 67.44 13.0699L65.4867 14.2299C64.7467 14.6632 64.1134 14.7365 63.7067 14.4365C63.5534 14.3232 63.44 14.1699 63.3667 13.9699L71.4734 5.86319C71.78 5.55652 72.2134 5.41652 72.6334 5.48985L73.3067 5.60319C74.0134 5.72319 74.4867 6.04319 74.64 6.50985C74.7867 6.97652 74.5867 7.51652 74.08 8.02319L72.4667 9.64319Z" fill="#FB8A2E"/>
<path d="M83.8269 10.6698C83.9002 10.3431 83.7669 9.87643 83.5336 9.64309L81.9136 8.02309C81.4069 7.51643 81.2069 6.97643 81.3536 6.50976C81.5069 6.04309 81.9802 5.72309 82.6869 5.60309L84.7669 5.25643C85.0669 5.20309 85.4336 4.93643 85.5736 4.66309L86.7202 2.36309C87.0536 1.70309 87.5069 1.33643 88.0002 1.33643C88.4936 1.33643 88.9469 1.70309 89.2802 2.36309L90.4269 4.66309C90.5136 4.83643 90.6936 5.00309 90.8869 5.11643L83.7069 12.2964C83.6136 12.3898 83.4536 12.3031 83.4802 12.1698L83.8269 10.6698Z" fill="#FB8A2E"/>
<path d="M92.4667 9.64319C92.2267 9.88319 92.0934 10.3432 92.1734 10.6699L92.6334 12.6765C92.8267 13.5099 92.7067 14.1365 92.2934 14.4365C92.1267 14.5565 91.9267 14.6165 91.6934 14.6165C91.3534 14.6165 90.9534 14.4899 90.5134 14.2299L88.56 13.0699C88.2534 12.8899 87.7467 12.8899 87.44 13.0699L85.4867 14.2299C84.7467 14.6632 84.1134 14.7365 83.7067 14.4365C83.5534 14.3232 83.44 14.1699 83.3667 13.9699L91.4734 5.86319C91.78 5.55652 92.2134 5.41652 92.6334 5.48985L93.3067 5.60319C94.0134 5.72319 94.4867 6.04319 94.64 6.50985C94.7867 6.97652 94.5867 7.51652 94.08 8.02319L92.4667 9.64319Z" fill="#FB8A2E" fill-opacity="0.25"/>
</svg>
