<svg width="24" height="25" viewBox="0 0 24 25" fill="none" xmlns="http://www.w3.org/2000/svg">
<path d="M5.73998 16.7812C5.84998 16.2913 5.64998 15.5913 5.29998 15.2413L2.86998 12.8112C2.10998 12.0512 1.80998 11.2413 2.02998 10.5413C2.25998 9.84125 2.96998 9.36125 4.02998 9.18125L7.14998 8.66125C7.59998 8.58125 8.14998 8.18125 8.35998 7.77125L10.08 4.32125C10.58 3.33125 11.26 2.78125 12 2.78125C12.74 2.78125 13.42 3.33125 13.92 4.32125L15.64 7.77125C15.77 8.03125 16.04 8.28125 16.33 8.45125L5.55998 19.2213C5.41998 19.3612 5.17998 19.2313 5.21998 19.0312L5.73998 16.7812Z" fill="#9F9F9F"/>
<path d="M18.7 15.2411C18.34 15.6011 18.14 16.2911 18.26 16.7811L18.95 19.7911C19.24 21.0411 19.06 21.9811 18.44 22.4311C18.19 22.6111 17.89 22.7011 17.54 22.7011C17.03 22.7011 16.43 22.5111 15.77 22.1211L12.84 20.3811C12.38 20.1111 11.62 20.1111 11.16 20.3811L8.23005 22.1211C7.12005 22.7711 6.17005 22.8811 5.56005 22.4311C5.33005 22.2611 5.16005 22.0311 5.05005 21.7311L17.21 9.57115C17.67 9.11115 18.32 8.90115 18.95 9.01115L19.96 9.18115C21.02 9.36115 21.73 9.84115 21.96 10.5411C22.18 11.2411 21.88 12.0511 21.12 12.8111L18.7 15.2411Z" fill="#9F9F9F"/>
</svg>
