<svg width="25" height="25" viewBox="0 0 25 25" fill="none" xmlns="http://www.w3.org/2000/svg">
<path d="M2.5 2.50317H4.24001C5.32001 2.50317 6.17 3.43317 6.08 4.50317L5.25 14.4632C5.11 16.0932 6.39999 17.4932 8.03999 17.4932H18.69C20.13 17.4932 21.39 16.3132 21.5 14.8832L22.04 7.38318C22.16 5.72318 20.9 4.37317 19.23 4.37317H6.32001" stroke="white" stroke-width="1.5" stroke-miterlimit="10" stroke-linecap="round" stroke-linejoin="round"/>
<path d="M16.75 22.5032C17.4404 22.5032 18 21.9435 18 21.2532C18 20.5628 17.4404 20.0032 16.75 20.0032C16.0596 20.0032 15.5 20.5628 15.5 21.2532C15.5 21.9435 16.0596 22.5032 16.75 22.5032Z" stroke="white" stroke-width="1.5" stroke-miterlimit="10" stroke-linecap="round" stroke-linejoin="round"/>
<path d="M8.75 22.5032C9.44036 22.5032 10 21.9435 10 21.2532C10 20.5628 9.44036 20.0032 8.75 20.0032C8.05964 20.0032 7.5 20.5628 7.5 21.2532C7.5 21.9435 8.05964 22.5032 8.75 22.5032Z" stroke="white" stroke-width="1.5" stroke-miterlimit="10" stroke-linecap="round" stroke-linejoin="round"/>
<path d="M9.5 8.50317H21.5" stroke="white" stroke-width="1.5" stroke-miterlimit="10" stroke-linecap="round" stroke-linejoin="round"/>
</svg>
