<svg width="16" height="17" viewBox="0 0 16 17" fill="none" xmlns="http://www.w3.org/2000/svg">
<path d="M8.31359 0.708311L10.5966 5.56009L15.7 6.3383C15.7648 6.34836 15.8256 6.37713 15.8756 6.42137C15.9255 6.46561 15.9627 6.52355 15.9829 6.58867C16.0031 6.6538 16.0054 6.72352 15.9898 6.78998C15.9741 6.85644 15.941 6.91701 15.8941 6.96486L12.202 10.7406L13.0737 16.0731C13.0849 16.1405 13.0779 16.2099 13.0533 16.2733C13.0288 16.3367 12.9877 16.3917 12.9348 16.432C12.8819 16.4723 12.8193 16.4963 12.754 16.5012C12.6887 16.5062 12.6234 16.4919 12.5655 16.46L8.00052 13.9429L3.43557 16.4608C3.37769 16.4928 3.31238 16.5071 3.24708 16.5022C3.18178 16.4974 3.11909 16.4734 3.06616 16.4332C3.01322 16.3929 2.97214 16.3379 2.94761 16.2745C2.92307 16.211 2.91605 16.1416 2.92734 16.0742L3.79908 10.7406L0.105859 6.96486C0.0590308 6.91701 0.0259117 6.85644 0.0102315 6.78998C-0.00544867 6.72352 -0.00306709 6.6538 0.0171081 6.58867C0.0372832 6.52355 0.0744506 6.46561 0.124425 6.42137C0.174398 6.37713 0.235194 6.34836 0.299965 6.3383L5.40341 5.56009L7.68745 0.708311C7.71593 0.646829 7.76041 0.594977 7.81578 0.558697C7.87115 0.522416 7.93517 0.503174 8.00052 0.503174C8.06587 0.503174 8.1299 0.522416 8.18527 0.558697C8.24063 0.594977 8.28511 0.646829 8.31359 0.708311Z" fill="#FB8A2E"/>
</svg>
