<svg width="112" height="17" viewBox="0 0 112 17" fill="none" xmlns="http://www.w3.org/2000/svg">
<path d="M8.31359 0.708311L10.5966 5.56009L15.7 6.3383C15.7648 6.34836 15.8256 6.37713 15.8756 6.42137C15.9255 6.46561 15.9627 6.52355 15.9829 6.58867C16.0031 6.6538 16.0054 6.72352 15.9898 6.78998C15.9741 6.85644 15.941 6.91701 15.8941 6.96486L12.202 10.7406L13.0737 16.0731C13.0849 16.1405 13.0779 16.2099 13.0533 16.2733C13.0288 16.3367 12.9877 16.3917 12.9348 16.432C12.8819 16.4723 12.8193 16.4963 12.754 16.5012C12.6887 16.5062 12.6234 16.4919 12.5655 16.46L8.00052 13.9429L3.43557 16.4608C3.37769 16.4928 3.31238 16.5071 3.24708 16.5022C3.18178 16.4974 3.11909 16.4734 3.06616 16.4332C3.01322 16.3929 2.97214 16.3379 2.94761 16.2745C2.92307 16.211 2.91605 16.1416 2.92734 16.0742L3.79908 10.7406L0.105859 6.96486C0.0590308 6.91701 0.0259117 6.85644 0.0102315 6.78998C-0.00544867 6.72352 -0.00306709 6.6538 0.0171081 6.58867C0.0372832 6.52355 0.0744506 6.46561 0.124425 6.42137C0.174398 6.37713 0.235194 6.34836 0.299965 6.3383L5.40341 5.56009L7.68745 0.708311C7.71593 0.646829 7.76041 0.594977 7.81578 0.558697C7.87115 0.522416 7.93517 0.503174 8.00052 0.503174C8.06587 0.503174 8.1299 0.522416 8.18527 0.558697C8.24063 0.594977 8.28511 0.646829 8.31359 0.708311Z" fill="#FB8A2E"/>
<path d="M32.3136 0.708311L34.5966 5.56009L39.7 6.3383C39.7648 6.34836 39.8256 6.37713 39.8756 6.42137C39.9255 6.46561 39.9627 6.52355 39.9829 6.58867C40.0031 6.6538 40.0054 6.72352 39.9898 6.78998C39.9741 6.85644 39.941 6.91701 39.8941 6.96486L36.202 10.7406L37.0737 16.0731C37.0849 16.1405 37.0779 16.2099 37.0533 16.2733C37.0288 16.3367 36.9877 16.3917 36.9348 16.432C36.8819 16.4723 36.8193 16.4963 36.754 16.5012C36.6887 16.5062 36.6234 16.4919 36.5655 16.46L32.0005 13.9429L27.4356 16.4608C27.3777 16.4928 27.3124 16.5071 27.2471 16.5022C27.1818 16.4974 27.1191 16.4734 27.0662 16.4332C27.0132 16.3929 26.9721 16.3379 26.9476 16.2745C26.9231 16.211 26.916 16.1416 26.9273 16.0742L27.7991 10.7406L24.1059 6.96486C24.059 6.91701 24.0259 6.85644 24.0102 6.78998C23.9946 6.72352 23.9969 6.6538 24.0171 6.58867C24.0373 6.52355 24.0745 6.46561 24.1244 6.42137C24.1744 6.37713 24.2352 6.34836 24.3 6.3383L29.4034 5.56009L31.6874 0.708311C31.7159 0.646829 31.7604 0.594977 31.8158 0.558697C31.8711 0.522416 31.9352 0.503174 32.0005 0.503174C32.0659 0.503174 32.1299 0.522416 32.1853 0.558697C32.2406 0.594977 32.2851 0.646829 32.3136 0.708311Z" fill="#FB8A2E"/>
<path d="M56.3136 0.708311L58.5966 5.56009L63.7 6.3383C63.7648 6.34836 63.8256 6.37713 63.8756 6.42137C63.9255 6.46561 63.9627 6.52355 63.9829 6.58867C64.0031 6.6538 64.0054 6.72352 63.9898 6.78998C63.9741 6.85644 63.941 6.91701 63.8941 6.96486L60.202 10.7406L61.0737 16.0731C61.0849 16.1405 61.0779 16.2099 61.0533 16.2733C61.0288 16.3367 60.9877 16.3917 60.9348 16.432C60.8819 16.4723 60.8193 16.4963 60.754 16.5012C60.6887 16.5062 60.6234 16.4919 60.5655 16.46L56.0005 13.9429L51.4356 16.4608C51.3777 16.4928 51.3124 16.5071 51.2471 16.5022C51.1818 16.4974 51.1191 16.4734 51.0662 16.4332C51.0132 16.3929 50.9721 16.3379 50.9476 16.2745C50.9231 16.211 50.916 16.1416 50.9273 16.0742L51.7991 10.7406L48.1059 6.96486C48.059 6.91701 48.0259 6.85644 48.0102 6.78998C47.9946 6.72352 47.9969 6.6538 48.0171 6.58867C48.0373 6.52355 48.0745 6.46561 48.1244 6.42137C48.1744 6.37713 48.2352 6.34836 48.3 6.3383L53.4034 5.56009L55.6874 0.708311C55.7159 0.646829 55.7604 0.594977 55.8158 0.558697C55.8711 0.522416 55.9352 0.503174 56.0005 0.503174C56.0659 0.503174 56.1299 0.522416 56.1853 0.558697C56.2406 0.594977 56.2851 0.646829 56.3136 0.708311Z" fill="#FB8A2E"/>
<path d="M80.3136 0.708311L82.5966 5.56009L87.7 6.3383C87.7648 6.34836 87.8256 6.37713 87.8756 6.42137C87.9255 6.46561 87.9627 6.52355 87.9829 6.58867C88.0031 6.6538 88.0054 6.72352 87.9898 6.78998C87.9741 6.85644 87.941 6.91701 87.8941 6.96486L84.202 10.7406L85.0737 16.0731C85.0849 16.1405 85.0779 16.2099 85.0533 16.2733C85.0288 16.3367 84.9877 16.3917 84.9348 16.432C84.8819 16.4723 84.8193 16.4963 84.754 16.5012C84.6887 16.5062 84.6234 16.4919 84.5655 16.46L80.0005 13.9429L75.4356 16.4608C75.3777 16.4928 75.3124 16.5071 75.2471 16.5022C75.1818 16.4974 75.1191 16.4734 75.0662 16.4332C75.0132 16.3929 74.9721 16.3379 74.9476 16.2745C74.9231 16.211 74.916 16.1416 74.9273 16.0742L75.7991 10.7406L72.1059 6.96486C72.059 6.91701 72.0259 6.85644 72.0102 6.78998C71.9946 6.72352 71.9969 6.6538 72.0171 6.58867C72.0373 6.52355 72.0745 6.46561 72.1244 6.42137C72.1744 6.37713 72.2352 6.34836 72.3 6.3383L77.4034 5.56009L79.6874 0.708311C79.7159 0.646829 79.7604 0.594977 79.8158 0.558697C79.8711 0.522416 79.9352 0.503174 80.0005 0.503174C80.0659 0.503174 80.1299 0.522416 80.1853 0.558697C80.2406 0.594977 80.2851 0.646829 80.3136 0.708311Z" fill="#FB8A2E"/>
<path d="M104.314 0.708311L106.597 5.56009L111.7 6.3383C111.765 6.34836 111.826 6.37713 111.876 6.42137C111.926 6.46561 111.963 6.52355 111.983 6.58867C112.003 6.6538 112.005 6.72352 111.99 6.78998C111.974 6.85644 111.941 6.91701 111.894 6.96486L108.202 10.7406L109.074 16.0731C109.085 16.1405 109.078 16.2099 109.053 16.2733C109.029 16.3367 108.988 16.3917 108.935 16.432C108.882 16.4723 108.819 16.4963 108.754 16.5012C108.689 16.5062 108.623 16.4919 108.565 16.46L104.001 13.9429L99.4356 16.4608C99.3777 16.4928 99.3124 16.5071 99.2471 16.5022C99.1818 16.4974 99.1191 16.4734 99.0662 16.4332C99.0132 16.3929 98.9721 16.3379 98.9476 16.2745C98.9231 16.211 98.916 16.1416 98.9273 16.0742L99.7991 10.7406L96.1059 6.96486C96.059 6.91701 96.0259 6.85644 96.0102 6.78998C95.9946 6.72352 95.9969 6.6538 96.0171 6.58867C96.0373 6.52355 96.0745 6.46561 96.1244 6.42137C96.1744 6.37713 96.2352 6.34836 96.3 6.3383L101.403 5.56009L103.687 0.708311C103.716 0.646829 103.76 0.594977 103.816 0.558697C103.871 0.522416 103.935 0.503174 104.001 0.503174C104.066 0.503174 104.13 0.522416 104.185 0.558697C104.241 0.594977 104.285 0.646829 104.314 0.708311Z" fill="#FB8A2E"/>
</svg>
