<svg width="53" height="40" viewBox="0 0 53 40" fill="none" xmlns="http://www.w3.org/2000/svg">
<g id="Frame" clip-path="url(#clip0_157_1229)">
<g id="Group">
<path id="Vector" d="M50.8741 0C51.9077 0 52.7491 0.841408 52.7491 1.875V14.4359C52.7491 15.3 52.2788 16.4039 51.6569 17.0016L34.0538 34.4672C33.6827 34.8211 33.2038 34.9977 32.7265 34.9977C32.239 34.9977 31.7515 34.8125 31.3843 34.4461L28.0741 31.1352C27.8304 30.8914 27.8304 30.4953 28.0741 30.2516C28.3179 30.0078 28.714 30.0078 28.9577 30.2516L32.2679 33.5625C32.5116 33.8047 32.9288 33.8109 33.1804 33.5727L50.7819 16.1078C51.16 15.7437 51.4991 14.95 51.4991 14.4359V1.875C51.4991 1.52969 51.2179 1.25 50.8741 1.25H38.3741C37.8593 1.25 37.0655 1.58906 36.7093 1.96016L35.0413 3.64219C34.7991 3.8875 34.4007 3.88906 34.1577 3.6461C33.9132 3.40391 33.91 3.00781 34.153 2.7625L35.8155 1.0875C36.4069 0.470314 37.51 0 38.3741 0H50.8741ZM49.0468 6.25C49.0468 7.62891 47.9257 8.75 46.5468 8.75C45.1679 8.75 44.0468 7.62891 44.0468 6.25C44.0468 4.87109 45.1679 3.75 46.5468 3.75C47.9257 3.75 49.0468 4.87109 49.0468 6.25ZM45.2968 6.25C45.2968 6.93906 45.8569 7.5 46.5468 7.5C47.2366 7.5 47.7968 6.93906 47.7968 6.25C47.7968 5.56094 47.2366 5 46.5468 5C45.8569 5 45.2968 5.56094 45.2968 6.25ZM20.8265 5H33.3265C34.36 5 35.2015 5.84141 35.2015 6.875V19.4359C35.2015 20.3016 34.7304 21.4047 34.1069 22.0023L16.5054 39.4672C16.1444 39.8141 15.6765 40 15.1819 40C14.6702 40 14.1929 39.8039 13.8366 39.4461L0.801452 26.4109C0.0756703 25.6852 0.065514 24.4914 0.77567 23.7516L18.2663 6.0875C18.8593 5.47031 19.9632 5 20.8265 5ZM33.9991 6.875C33.9991 6.52969 33.6702 6.25 33.3265 6.25H20.8265C20.3116 6.25 19.5179 6.58906 19.1616 6.96016L1.66942 24.625C1.43661 24.8664 1.4413 25.2836 1.68505 25.5289L14.7218 38.5625C14.9577 38.7984 15.389 38.8039 15.6327 38.5727L33.2343 21.1078C33.6132 20.7437 33.9991 19.9516 33.9991 19.4359V6.875ZM28.9991 8.75C30.378 8.75 31.4991 9.87109 31.4991 11.25C31.4991 12.6289 30.378 13.75 28.9991 13.75C27.6202 13.75 26.4991 12.6289 26.4991 11.25C26.4991 9.87109 27.6202 8.75 28.9991 8.75ZM28.9991 12.5C29.689 12.5 30.2491 11.9391 30.2491 11.25C30.2491 10.5609 29.689 10 28.9991 10C28.3093 10 27.7491 10.5609 27.7491 11.25C27.7491 11.9391 28.3093 12.5 28.9991 12.5Z" fill="#FB8A2E"/>
</g>
</g>
<defs>
<clipPath id="clip0_157_1229">
<rect width="52.5" height="40" fill="white" transform="matrix(1 0 0 -1 0.25 40)"/>
</clipPath>
</defs>
</svg>
