<svg width="43" height="35" viewBox="0 0 43 35" fill="none" xmlns="http://www.w3.org/2000/svg">
<path d="M13.6831 34.5029C8.83061 34.5029 4.30726 33.0916 0.5 30.6564C3.73249 30.8655 9.4371 30.3646 12.9854 26.9801C7.64762 26.7352 5.24039 22.6414 4.92641 20.8919C5.37994 21.0668 7.54295 21.2768 8.76401 20.7869C2.62385 19.2474 1.68189 13.8589 1.89122 12.2144C3.0425 13.0192 4.99618 13.2991 5.7637 13.2291C0.0421895 9.13528 2.10054 2.97707 3.11227 1.64745C7.21824 7.33593 13.3718 10.5308 20.9846 10.7085C20.841 10.079 20.7652 9.42356 20.7652 8.75039C20.7652 3.9193 24.6701 0.00292969 29.487 0.00292969C32.0038 0.00292969 34.2716 1.07206 35.8635 2.78219C37.5454 2.38809 40.0765 1.46553 41.3138 0.667737C40.6901 2.90709 38.7484 4.77517 37.5739 5.46755C37.5643 5.44389 37.5836 5.4911 37.5739 5.46755C38.6056 5.31148 41.3972 4.77498 42.5 4.02676C41.9546 5.28481 39.896 7.37652 38.2066 8.54756C38.5209 22.41 27.9147 34.5029 13.6831 34.5029Z" fill="#47ACDF"/>
</svg>
