<svg width="24" height="25" viewBox="0 0 24 25" fill="none" xmlns="http://www.w3.org/2000/svg">
<g id="User">
<g id="vuesax/linear/user-square">
<g id="user-square">
<path id="Vector" d="M18.1399 21.8715C17.2599 22.1315 16.2199 22.2515 14.9999 22.2515H8.99986C7.77986 22.2515 6.73986 22.1315 5.85986 21.8715C6.07986 19.2715 8.74986 17.2214 11.9999 17.2214C15.2499 17.2214 17.9199 19.2715 18.1399 21.8715Z" stroke="#131313" stroke-width="1.5" stroke-linecap="round" stroke-linejoin="round"/>
<path id="Vector_2" d="M15 2.25146H9C4 2.25146 2 4.25146 2 9.25146V15.2515C2 19.0315 3.14 21.1015 5.86 21.8715C6.08 19.2715 8.75 17.2214 12 17.2214C15.25 17.2214 17.92 19.2715 18.14 21.8715C20.86 21.1015 22 19.0315 22 15.2515V9.25146C22 4.25146 20 2.25146 15 2.25146ZM12 14.4214C10.02 14.4214 8.42 12.8115 8.42 10.8315C8.42 8.85148 10.02 7.25146 12 7.25146C13.98 7.25146 15.58 8.85148 15.58 10.8315C15.58 12.8115 13.98 14.4214 12 14.4214Z" stroke="#131313" stroke-width="1.5" stroke-linecap="round" stroke-linejoin="round"/>
<path id="Vector_3" d="M15.5799 10.8315C15.5799 12.8115 13.9799 14.4214 11.9999 14.4214C10.0199 14.4214 8.41992 12.8115 8.41992 10.8315C8.41992 8.85148 10.0199 7.25146 11.9999 7.25146C13.9799 7.25146 15.5799 8.85148 15.5799 10.8315Z" stroke="#131313" stroke-width="1.5" stroke-linecap="round" stroke-linejoin="round"/>
</g>
</g>
</g>
</svg>
