<svg width="37" height="13" viewBox="0 0 37 13" fill="none" xmlns="http://www.w3.org/2000/svg">
<g id="ZEN">
<path d="M1.32883 12.5608C1.08304 12.5608 0.883789 12.3615 0.883789 12.1157V10.8522C0.883789 10.7484 0.920048 10.6479 0.986297 10.568L8.19413 1.87867C8.36807 1.66897 8.70459 1.73119 8.79206 1.98922C8.86862 2.21507 8.70068 2.44933 8.4622 2.44933H1.47125C1.22546 2.44933 1.0262 2.25008 1.0262 2.00429V0.544534C1.0262 0.298741 1.22546 0.0994873 1.47125 0.0994873H11.0665C11.3122 0.0994873 11.5115 0.298741 11.5115 0.544534V1.80841C11.5115 1.912 11.4754 2.01235 11.4093 2.09216L4.21865 10.7809C4.04496 10.9908 3.70837 10.9287 3.62091 10.6707C3.54441 10.445 3.71223 10.2109 3.95052 10.2109H11.3335C11.5793 10.2109 11.7785 10.4102 11.7785 10.656V12.1157C11.7785 12.3615 11.5793 12.5608 11.3335 12.5608H1.32883Z" fill="#F59C1E"/>
<path d="M16.2806 5.56466C16.2806 5.31886 16.4798 5.11961 16.7256 5.11961H21.8348C22.0806 5.11961 22.2798 5.31886 22.2798 5.56466V6.9176C22.2798 7.16339 22.0806 7.36264 21.8348 7.36264H16.7256C16.4798 7.36264 16.2806 7.16339 16.2806 6.9176V5.56466ZM16.4942 9.8015C16.4942 10.0473 16.6935 10.2465 16.9393 10.2465H22.8317C23.0775 10.2465 23.2767 10.4458 23.2767 10.6916V12.1157C23.2767 12.3615 23.0775 12.5608 22.8317 12.5608H14.0732C13.8274 12.5608 13.6281 12.3615 13.6281 12.1157V0.544533C13.6281 0.298741 13.8274 0.0994873 14.0732 0.0994873H22.6002C22.846 0.0994873 23.0453 0.298741 23.0453 0.544534V1.96868C23.0453 2.21447 22.846 2.41373 22.6002 2.41373H16.9393C16.6935 2.41373 16.4942 2.61298 16.4942 2.85877V9.8015Z" fill="#F59C1E"/>
<path d="M26.0164 12.5608C25.7706 12.5608 25.5713 12.3615 25.5713 12.1157V0.544533C25.5713 0.298741 25.7706 0.0994873 26.0164 0.0994873H27.7461C27.8795 0.0994873 28.0058 0.159297 28.0903 0.262453L34.8112 8.46418C35.0101 8.70689 34.8374 9.07162 34.5236 9.07162C34.3183 9.07162 34.1518 8.90517 34.1518 8.69983V0.544534C34.1518 0.298741 34.3511 0.0994873 34.5969 0.0994873H36.5551C36.8009 0.0994873 37.0001 0.298741 37.0001 0.544534V12.1157C37.0001 12.3615 36.8009 12.5608 36.5551 12.5608H34.8429C34.7097 12.5608 34.5835 12.5011 34.499 12.3982L27.7612 4.1958C27.5622 3.95342 27.7346 3.58865 28.0482 3.58865C28.2534 3.58865 28.4196 3.75493 28.4196 3.96005V12.1157C28.4196 12.3615 28.2204 12.5608 27.9746 12.5608H26.0164Z" fill="#F59C1E"/>
</g>
</svg>
